<svg width="24" height="24" viewBox="0 0 24 24" fill="none" xmlns="http://www.w3.org/2000/svg">
<g clip-path="url(#clip0_195_9262)">
<path d="M7.27871 16.5676C6.01204 16.5676 4.95648 15.6176 4.85093 14.2454L4.00648 3.68982L2.63426 3.4787C2.21204 3.37315 1.89537 2.95093 2.00093 2.63426C2.10648 2.21204 2.42315 1.89537 2.84537 2.00093L4.85093 2.31759C5.16759 2.42315 5.37871 2.73982 5.37871 3.05648L5.58982 5.80093C19.1009 5.80093 19.2065 5.80093 19.312 5.80093C19.8398 5.90648 20.262 6.11759 20.5787 6.64537C20.8954 7.06759 21.0009 7.59537 21.0009 8.12315L20.0509 14.4565C19.8398 15.6176 18.8898 16.5676 17.6231 16.5676H7.27871ZM5.69537 7.17315L6.22315 14.1398C6.22315 14.6676 6.75093 15.0898 7.17315 15.0898H17.5176C18.0454 15.0898 18.4676 14.6676 18.4676 14.2454L19.4176 7.91204C19.4176 7.80648 19.4176 7.59537 19.312 7.48982C19.4176 7.2787 19.2065 7.27871 19.1009 7.17315C18.8898 7.17315 10.6565 7.17315 5.69537 7.17315Z" fill="white"/>
<path d="M16.1473 10.7628H13.5084C13.0862 10.7628 12.7695 10.4462 12.7695 10.024C12.7695 9.60174 13.0862 9.39062 13.5084 9.39062H16.1473C16.5695 9.39062 16.8862 9.70729 16.8862 10.1295C16.8862 10.5517 16.5695 10.7628 16.1473 10.7628Z" fill="white"/>
<path d="M6.96207 21.0023C6.22318 21.0023 5.58984 20.3689 5.58984 19.63C5.58984 18.8911 6.22318 18.2578 6.96207 18.2578C7.70095 18.2578 8.33429 18.8911 8.33429 19.63C8.33429 20.3689 7.70095 21.0023 6.96207 21.0023Z" fill="white"/>
<path d="M17.5168 21.0023C16.7779 21.0023 16.1445 20.3689 16.1445 19.63C16.1445 18.8911 16.7779 18.2578 17.5168 18.2578C18.2556 18.2578 18.889 18.8911 18.889 19.63C18.889 20.3689 18.2556 21.0023 17.5168 21.0023Z" fill="white"/>
</g>
<defs>
<clipPath id="clip0_195_9262">
<rect width="19" height="19" fill="white" transform="translate(2 2)"/>
</clipPath>
</defs>
</svg>
