<svg width="32" height="32" viewBox="0 0 32 32" fill="none" xmlns="http://www.w3.org/2000/svg">
<circle cx="16" cy="16" r="16" fill="white"/>
<g clip-path="url(#clip0_8508_4263)">
<path d="M11.2787 20.5676C10.012 20.5676 8.95648 19.6176 8.85093 18.2454L8.00648 7.68982L6.63426 7.4787C6.21204 7.37315 5.89537 6.95093 6.00093 6.63426C6.10648 6.21204 6.42315 5.89537 6.84537 6.00093L8.85093 6.31759C9.16759 6.42315 9.37871 6.73982 9.37871 7.05648L9.58982 9.80093C23.1009 9.80093 23.2065 9.80093 23.312 9.80093C23.8398 9.90648 24.262 10.1176 24.5787 10.6454C24.8954 11.0676 25.0009 11.5954 25.0009 12.1231L24.0509 18.4565C23.8398 19.6176 22.8898 20.5676 21.6231 20.5676H11.2787ZM9.69537 11.1731L10.2231 18.1398C10.2231 18.6676 10.7509 19.0898 11.1731 19.0898H21.5176C22.0454 19.0898 22.4676 18.6676 22.4676 18.2454L23.4176 11.912C23.4176 11.8065 23.4176 11.5954 23.312 11.4898C23.4176 11.2787 23.2065 11.2787 23.1009 11.1731C22.8898 11.1731 14.6565 11.1731 9.69537 11.1731Z" fill="#1A1A1A"/>
<path d="M20.1473 14.7628H17.5084C17.0862 14.7628 16.7695 14.4462 16.7695 14.024C16.7695 13.6017 17.0862 13.3906 17.5084 13.3906H20.1473C20.5695 13.3906 20.8862 13.7073 20.8862 14.1295C20.8862 14.5517 20.5695 14.7628 20.1473 14.7628Z" fill="#1A1A1A"/>
<path d="M10.9621 25.0023C10.2232 25.0023 9.58984 24.3689 9.58984 23.63C9.58984 22.8911 10.2232 22.2578 10.9621 22.2578C11.701 22.2578 12.3343 22.8911 12.3343 23.63C12.3343 24.3689 11.701 25.0023 10.9621 25.0023Z" fill="#1A1A1A"/>
<path d="M21.5168 25.0023C20.7779 25.0023 20.1445 24.3689 20.1445 23.63C20.1445 22.8911 20.7779 22.2578 21.5168 22.2578C22.2556 22.2578 22.889 22.8911 22.889 23.63C22.889 24.3689 22.2556 25.0023 21.5168 25.0023Z" fill="#1A1A1A"/>
</g>
<defs>
<clipPath id="clip0_8508_4263">
<rect width="19" height="19" fill="white" transform="translate(6 6)"/>
</clipPath>
</defs>
</svg>
