<svg width="10" height="9" viewBox="0 0 10 9" fill="none" xmlns="http://www.w3.org/2000/svg">
<path d="M5.21339 1.57381L5.38883 1.89445L5.56429 1.57382C5.70873 1.30986 5.95086 0.953495 6.30907 0.676463C6.6793 0.390137 7.09531 0.246875 7.55048 0.246875C8.82166 0.246875 9.80034 1.28409 9.80034 2.70414C9.80034 3.46092 9.49928 4.10633 8.94074 4.7803C8.37713 5.46039 7.56678 6.15182 6.56768 7.00324L6.69741 7.15546L6.56768 7.00324L6.56763 7.00328C6.22975 7.29123 5.84597 7.61829 5.4469 7.96729L5.44683 7.96735C5.43093 7.98127 5.4104 7.98905 5.38884 7.98905C5.36728 7.98905 5.34677 7.98127 5.33088 7.96736L5.33078 7.96727C4.93196 7.61851 4.54837 7.2916 4.21081 7.00393L4.21022 7.00342L4.21021 7.00342C3.21101 6.15191 2.40061 5.46044 1.83697 4.78032C1.2784 4.10633 0.977344 3.46092 0.977344 2.70414C0.977344 1.28409 1.95601 0.246875 3.2272 0.246875C3.68237 0.246875 4.09838 0.390137 4.46861 0.676463L4.58887 0.520966L4.46861 0.676463C4.82682 0.953496 5.06895 1.30985 5.21339 1.57381Z" stroke="url(#paint0_linear_291_4626)" stroke-width="0.4"/>
<defs>
<linearGradient id="paint0_linear_291_4626" x1="10.0003" y1="8.18905" x2="0.687499" y2="0.150968" gradientUnits="userSpaceOnUse">
<stop stop-color="#FD374F"/>
<stop offset="1" stop-color="#FD37AE"/>
</linearGradient>
</defs>
</svg>
