<svg width="10" height="9" viewBox="0 0 10 9" fill="none" xmlns="http://www.w3.org/2000/svg">
<path d="M6.9997 0.046875C6.49922 0.046875 6.04038 0.205467 5.63594 0.518256C5.24819 0.81813 4.99004 1.20007 4.83806 1.47781C4.68608 1.20006 4.42792 0.81813 4.04018 0.518256C3.63574 0.205467 3.17689 0.046875 2.67642 0.046875C1.27979 0.046875 0.226562 1.18925 0.226562 2.70414C0.226562 4.34075 1.54053 5.4605 3.52971 7.15564C3.8675 7.44352 4.25038 7.76982 4.64834 8.11782C4.70079 8.16376 4.76817 8.18905 4.83806 8.18905C4.90795 8.18905 4.97532 8.16376 5.02778 8.11784C5.42577 7.76978 5.80863 7.4435 6.14662 7.15546C8.13558 5.4605 9.44955 4.34075 9.44955 2.70414C9.44955 1.18925 8.39633 0.046875 6.9997 0.046875Z" fill="url(#paint0_linear_291_4611)"/>
<defs>
<linearGradient id="paint0_linear_291_4611" x1="9.44955" y1="8.18905" x2="0.136718" y2="0.150968" gradientUnits="userSpaceOnUse">
<stop stop-color="#FD374F"/>
<stop offset="1" stop-color="#FD37AE"/>
</linearGradient>
</defs>
</svg>
