<svg width="14" height="21" viewBox="0 0 14 21" fill="none" xmlns="http://www.w3.org/2000/svg">
<path d="M0.641299 19.8229L0.634194 19.8187L0.62695 19.8146C0.558062 19.7763 0.5 19.6888 0.5 19.5849V1.28171C0.5 0.839027 0.839885 0.5 1.27878 0.5H12.0203C12.4626 0.5 12.789 0.838338 12.7738 1.26389L12.7735 1.2728V1.28171V19.5593C12.7735 19.6632 12.7154 19.7506 12.6466 19.7889L12.6465 19.789C12.5688 19.8323 12.464 19.8269 12.4004 19.7844L12.3924 19.7791L12.3841 19.774L6.91103 16.4158L6.64755 16.2542L6.38517 16.4176L0.916838 19.8241C0.906537 19.83 0.888425 19.8378 0.860839 19.844C0.831705 19.8507 0.799083 19.854 0.767279 19.854C0.73699 19.854 0.714671 19.851 0.697009 19.8465C0.680052 19.8423 0.662098 19.8354 0.641299 19.8229Z" stroke="#1A1A1A"/>
</svg>
