<svg width="25" height="25" viewBox="0 0 25 25" fill="none" xmlns="http://www.w3.org/2000/svg">
<path d="M12.7837 21.3023C12.7623 21.3162 12.7415 21.3296 12.7215 21.3426C12.7009 21.3291 12.6795 21.3152 12.6575 21.3007C12.3638 21.1081 11.9422 20.8244 11.4355 20.463C10.4207 19.7393 9.07102 18.7089 7.72461 17.4789C6.37521 16.2462 5.04831 14.8304 4.0634 13.3386C3.07452 11.8408 2.46875 10.3246 2.46875 8.87557C2.46875 5.5441 4.88405 2.98067 7.70277 2.98067V2.9807L7.70926 2.98064C9.43859 2.96567 11.0923 3.93131 12.0713 5.60589L12.715 6.7069L13.3643 5.60919C14.3508 3.94143 16.0019 2.9764 17.7317 2.98066C20.5467 2.99649 22.9533 5.55249 22.9688 8.87712C22.9683 10.3521 22.361 11.8806 21.3736 13.3807C20.3892 14.8761 19.063 16.2882 17.7143 17.5143C16.3685 18.7377 15.0194 19.7587 14.0051 20.4746C13.4986 20.832 13.0772 21.1122 12.7837 21.3023Z" stroke="#C9C9C9" stroke-width="1.5"/>
</svg>
