<svg width="25" height="25" viewBox="0 0 25 25" fill="none" xmlns="http://www.w3.org/2000/svg">
<path fill-rule="evenodd" clip-rule="evenodd" d="M3.51951 4.20914C3.93713 3.16508 4.94833 2.48047 6.07282 2.48047H19.3647C20.4892 2.48047 21.5004 3.16508 21.918 4.20914L23.4081 7.93431C23.4306 7.98675 23.4474 8.04227 23.4575 8.10006C23.4662 8.14928 23.4699 8.19864 23.4688 8.24748V9.26606C23.4688 10.0863 23.0688 10.7595 22.4688 11.2302C22.4688 11.2301 22.4688 11.2303 22.4688 11.2302V16.2314C22.4688 17.852 21.9593 19.2962 20.9801 20.342C19.9955 21.3935 18.5931 21.9805 16.9346 21.9805H8.50091C6.84289 21.9805 5.44088 21.3934 4.45672 20.3419C3.47787 19.2961 2.96875 17.8519 2.96875 16.2314V11.2308C2.36874 10.7601 1.96875 10.0864 1.96875 9.26611V8.23047C1.96875 8.13505 1.98696 8.04052 2.02239 7.95193L3.51951 4.20914ZM20.9688 11.9052C20.7225 11.9547 20.4704 11.9803 20.2188 11.9803C19.2851 11.9803 18.3458 11.6279 17.7188 11.0107C17.0918 11.6279 16.1525 11.9805 15.2188 11.9805C14.2851 11.9805 13.3457 11.628 12.7188 11.0108C12.0918 11.628 11.1524 11.9805 10.2188 11.9805C9.28504 11.9805 8.34569 11.628 7.71872 11.0107C7.09174 11.6279 6.15243 11.9804 5.21875 11.9804C4.96708 11.9804 4.71501 11.9548 4.46875 11.9053V16.2314C4.46875 17.5401 4.87665 18.5955 5.55186 19.3169C6.22176 20.0326 7.21083 20.4805 8.50091 20.4805H9.96875V16.5638C9.96875 15.4133 10.9015 14.4805 12.0521 14.4805H13.3854C14.536 14.4805 15.4688 15.4133 15.4688 16.5638V20.4805H16.9346C18.2253 20.4805 19.2149 20.0325 19.8851 19.3168C20.5607 18.5953 20.9688 17.54 20.9688 16.2314V11.9052ZM16.9688 9.26606V8.23047C16.9688 7.81626 17.3045 7.48047 17.7188 7.48047C18.133 7.48047 18.4688 7.81626 18.4688 8.23047V9.26606C18.4688 9.77842 19.0735 10.4803 20.2188 10.4803C21.364 10.4803 21.9688 9.77842 21.9688 9.26606V8.37491L20.5253 4.76623C20.3355 4.29166 19.8758 3.98047 19.3647 3.98047H6.07282C5.56169 3.98047 5.10205 4.29166 4.91222 4.76623L3.46875 8.37491V9.26611C3.46875 9.77848 4.07348 10.4804 5.21875 10.4804C6.36402 10.4804 6.96875 9.77848 6.96875 9.26611V8.23047C6.96875 7.81626 7.30454 7.48047 7.71875 7.48047C8.13296 7.48047 8.46875 7.81626 8.46875 8.23047V9.26611C8.46875 9.77848 9.07348 10.4805 10.2188 10.4805C11.364 10.4805 11.9688 9.77855 11.9688 9.26618V8.23047C11.9688 7.81626 12.3045 7.48047 12.7188 7.48047C13.133 7.48047 13.4688 7.81626 13.4688 8.23047V9.26618C13.4688 9.77855 14.0735 10.4805 15.2188 10.4805C16.364 10.4805 16.9688 9.77842 16.9688 9.26606ZM13.9688 20.4805V16.5638C13.9688 16.2417 13.7075 15.9805 13.3854 15.9805H12.0521C11.73 15.9805 11.4688 16.2417 11.4688 16.5638V20.4805H13.9688Z" fill="#C9C9C9"/>
</svg>
