<svg width="25" height="25" viewBox="0 0 25 25" fill="none" xmlns="http://www.w3.org/2000/svg">
<path fill-rule="evenodd" clip-rule="evenodd" d="M16.1132 12.9826C18.1081 11.6156 18.9803 9.10892 18.2648 6.79891C17.5493 4.48889 15.4129 2.91406 12.9946 2.91406C10.5763 2.91406 8.43989 4.48889 7.72439 6.79891C7.00889 9.10892 7.8811 11.6156 9.87599 12.9826C6.79746 14.0257 4.72409 16.9123 4.71875 20.1628V21.5421C4.71875 21.923 5.02752 22.2318 5.40841 22.2318H20.5808C20.9617 22.2318 21.2705 21.923 21.2705 21.5421V20.1628C21.2651 16.9123 19.1918 14.0257 16.1132 12.9826ZM8.85668 8.43865C8.85668 6.15334 10.7093 4.30072 12.9946 4.30072C15.2799 4.30072 17.1325 6.15334 17.1325 8.43865C17.1325 10.724 15.2799 12.5766 12.9946 12.5766C10.7103 12.5741 8.85919 10.7229 8.85668 8.43865ZM6.09806 20.1628V20.8524H19.8912V20.1628C19.8874 16.7364 17.1107 13.9597 13.6843 13.9559H12.305C8.87856 13.9597 6.10186 16.7364 6.09806 20.1628Z" fill="#C9C9C9"/>
</svg>
