<svg width="25" height="25" viewBox="0 0 25 25" fill="none" xmlns="http://www.w3.org/2000/svg">
<path fill-rule="evenodd" clip-rule="evenodd" d="M12.5977 21.8115C12.9271 21.8115 13.2622 21.7899 13.5932 21.7478C17.0134 21.3137 19.7767 18.5093 20.1642 15.0799C20.4125 12.8805 19.7424 10.7663 18.2773 9.1262C16.8307 7.50719 14.7606 6.57837 12.5977 6.57837C12.2759 6.57837 11.9495 6.5989 11.6293 6.63995C11.4374 6.66407 11.3266 6.78158 11.2783 6.84983C11.2296 6.91757 11.1541 7.05971 11.1931 7.25317C11.2383 7.47948 11.4759 7.65651 11.7335 7.65651C11.7556 7.65651 11.7771 7.65498 11.7992 7.65241C12.064 7.62111 12.3318 7.60469 12.5977 7.60469C14.56 7.60469 16.4079 8.47346 17.6661 9.98676C18.9228 11.498 19.435 13.4865 19.0722 15.4421C18.5826 18.0788 16.4823 20.1791 13.8462 20.6692C13.432 20.7461 13.0123 20.7851 12.5982 20.7851C8.9804 20.7846 6.02461 17.8417 6.00922 14.2239V2.94778C6.00922 2.664 5.77881 2.43359 5.49555 2.43359C5.21177 2.43359 4.98136 2.664 4.98136 2.94778V14.1952C4.98136 15.4678 5.30414 16.7291 5.91531 17.8427C7.25773 20.2905 9.81788 21.8115 12.5977 21.8115C12.5971 21.8115 12.5977 21.8115 12.5977 21.8115Z" fill="#C9C9C9"/>
<path d="M12.5977 21.8115C12.9271 21.8115 13.2622 21.7899 13.5932 21.7478C17.0134 21.3137 19.7767 18.5093 20.1642 15.0799C20.4125 12.8805 19.7424 10.7663 18.2773 9.1262C16.8307 7.50719 14.7606 6.57837 12.5977 6.57837C12.2759 6.57837 11.9495 6.5989 11.6293 6.63995C11.4374 6.66407 11.3266 6.78158 11.2783 6.84983C11.2296 6.91757 11.1541 7.05971 11.1931 7.25317C11.2383 7.47948 11.4759 7.65651 11.7335 7.65651C11.7556 7.65651 11.7771 7.65498 11.7992 7.65241C12.064 7.62111 12.3318 7.60469 12.5977 7.60469C14.56 7.60469 16.4079 8.47346 17.6661 9.98676C18.9228 11.498 19.435 13.4865 19.0722 15.4421C18.5826 18.0788 16.4823 20.1791 13.8462 20.6692C13.432 20.7461 13.0123 20.7851 12.5982 20.7851C8.9804 20.7846 6.02461 17.8417 6.00922 14.2239V2.94778C6.00922 2.664 5.77881 2.43359 5.49555 2.43359C5.21177 2.43359 4.98136 2.664 4.98136 2.94778V14.1952C4.98136 15.4678 5.30414 16.7291 5.91531 17.8427C7.25773 20.2905 9.81788 21.8115 12.5977 21.8115C12.5977 21.8115 12.5971 21.8115 12.5977 21.8115" stroke="#C9C9C9" stroke-width="1.3"/>
</svg>
