<svg width="24" height="24" viewBox="0 0 24 24" fill="none" xmlns="http://www.w3.org/2000/svg">
<path d="M12.0001 23.7622C18.4949 23.7622 23.76 18.4971 23.76 12.0022C23.76 5.50732 18.4949 0.242188 12.0001 0.242188C5.50518 0.242188 0.240051 5.50732 0.240051 12.0022C0.240051 18.4971 5.50518 23.7622 12.0001 23.7622Z" fill="#FFF4F7" stroke="black" stroke-width="0.3" stroke-miterlimit="10" stroke-linecap="round" stroke-linejoin="round"/>
<path d="M6.84018 13.4713C7.65204 13.4713 8.31018 12.8131 8.31018 12.0013C8.31018 11.1894 7.65204 10.5312 6.84018 10.5312C6.02832 10.5312 5.37018 11.1894 5.37018 12.0013C5.37018 12.8131 6.02832 13.4713 6.84018 13.4713Z" fill="#FF9EB8" stroke="#020202" stroke-width="0.3" stroke-miterlimit="10"/>
<path d="M12 13.4713C12.8119 13.4713 13.47 12.8131 13.47 12.0013C13.47 11.1894 12.8119 10.5312 12 10.5312C11.1882 10.5312 10.53 11.1894 10.53 12.0013C10.53 12.8131 11.1882 13.4713 12 13.4713Z" fill="#FF9EB8" stroke="#020202" stroke-width="0.3" stroke-miterlimit="10"/>
<path d="M17.1601 13.4713C17.9719 13.4713 18.6301 12.8131 18.6301 12.0013C18.6301 11.1894 17.9719 10.5312 17.1601 10.5312C16.3482 10.5312 15.6901 11.1894 15.6901 12.0013C15.6901 12.8131 16.3482 13.4713 17.1601 13.4713Z" fill="#FF9EB8" stroke="#020202" stroke-width="0.3" stroke-miterlimit="10"/>
</svg>
