<svg width="32" height="32" viewBox="0 0 32 32" fill="none" xmlns="http://www.w3.org/2000/svg">
<circle cx="16" cy="16" r="16" fill="white"/>
<path fill-rule="evenodd" clip-rule="evenodd" d="M17.7247 7.21678C18.0107 7.10352 18.3369 7.17638 18.5475 7.40058L25.6332 14.9434C25.9044 15.2321 25.9044 15.6818 25.6332 15.9705L18.5475 23.5133C18.3369 23.7375 18.0107 23.8104 17.7247 23.6971C17.4387 23.5838 17.2509 23.3074 17.2509 22.9998V19.3062C12.8209 19.469 9.65206 21.1036 7.42489 24.4444C7.22689 24.7414 6.84701 24.8577 6.51668 24.7225C6.18635 24.5872 5.9971 24.2379 6.06424 23.8873C7.09514 18.5037 10.1817 12.9403 17.2509 11.5164V7.91409C17.2509 7.60647 17.4387 7.33005 17.7247 7.21678ZM18.7509 9.80789V12.1427C18.7509 12.5108 18.4837 12.8245 18.1203 12.8831C12.8373 13.7352 9.90014 17.0697 8.41549 21.011C10.8917 18.8077 14.0753 17.7927 18.0009 17.7927C18.4151 17.7927 18.7509 18.1284 18.7509 18.5427V21.106L24.0575 15.4569L18.7509 9.80789Z" fill="#333333"/>
</svg>
